<?xml version="1.0" encoding="UTF-8"?>
<svg height="16px" viewBox="0 0 16 16" width="16px" xmlns="http://www.w3.org/2000/svg">
    <g fill="#241f31">
        <path d="m 7.988281 0.90625 c -3.933593 0 -7.125 3.191406 -7.125 7.125 c 0 3.9375 3.191407 7.125 7.125 7.125 c 3.933594 0 7.125 -3.1875 7.125 -7.125 c 0 -3.933594 -3.191406 -7.125 -7.125 -7.125 z m -2.988281 5.042969 h 6 c 1.128906 0 2.035156 0.910156 2.035156 2.035156 c 0 1.128906 -0.90625 2.035156 -2.035156 2.035156 h -6 c -1.128906 0 -2.035156 -0.90625 -2.035156 -2.035156 c 0 -1.125 0.90625 -2.035156 2.035156 -2.035156 z m 0 0"/>
        <path d="m 6 8 c 0 0.550781 -0.449219 1 -1 1 s -1 -0.449219 -1 -1 s 0.449219 -1 1 -1 s 1 0.449219 1 1 z m 0 0"/>
        <path d="m 12 8 c 0 0.550781 -0.449219 1 -1 1 s -1 -0.449219 -1 -1 s 0.449219 -1 1 -1 s 1 0.449219 1 1 z m 0 0"/>
    </g>
</svg>
