<?xml version="1.0" encoding="UTF-8" standalone="no"?>
<!-- Created with Inkscape (http://www.inkscape.org/) -->
<svg id="svg1582" xmlns:rdf="http://www.w3.org/1999/02/22-rdf-syntax-ns#" xmlns="http://www.w3.org/2000/svg" height="48" width="48" version="1.0" xmlns:cc="http://creativecommons.org/ns#" xmlns:xlink="http://www.w3.org/1999/xlink" xmlns:dc="http://purl.org/dc/elements/1.1/">
 <metadata id="metadata51">
  <rdf:RDF>
   <cc:Work rdf:about="">
    <dc:format>image/svg+xml</dc:format>
    <dc:type rdf:resource="http://purl.org/dc/dcmitype/StillImage"/>
   </cc:Work>
  </rdf:RDF>
 </metadata>
 <defs id="defs1584">
  <linearGradient id="linearGradient9598">
   <stop id="stop9600" stop-color="#ef2929" offset="0"/>
   <stop id="stop9602" stop-color="#ef2929" stop-opacity="0" offset="1"/>
  </linearGradient>
  <linearGradient id="linearGradient9586">
   <stop id="stop9588" stop-color="#c00" offset="0"/>
   <stop id="stop9590" stop-color="#c00" stop-opacity="0" offset="1"/>
  </linearGradient>
  <linearGradient id="linearGradient8687">
   <stop id="stop8689" stop-color="#a40000" offset="0"/>
   <stop id="stop8691" stop-color="#a40000" stop-opacity="0" offset="1"/>
  </linearGradient>
  <linearGradient id="linearGradient1351" y2="40.081" gradientUnits="userSpaceOnUse" x2="40.503" y1="5.4583" x1="5.6934">
   <stop id="stop4002" stop-color="#eeeeec" offset="0"/>
   <stop id="stop4004" stop-color="#eeeeec" stop-opacity="0" offset="1"/>
  </linearGradient>
  <radialGradient id="radialGradient1354" gradientUnits="userSpaceOnUse" cy="12.464" cx="13.199" gradientTransform="matrix(1.0649 .61482 -.62301 1.0791 6.9085 -9.1007)" r="21.009">
   <stop id="stop3107" stop-color="#d3d7cf" offset="0"/>
   <stop id="stop3109" stop-color="#888a85" offset="1"/>
  </radialGradient>
  <radialGradient id="radialGradient1366" gradientUnits="userSpaceOnUse" cy="43.548" cx="24.109" gradientTransform="matrix(.89206 0 0 .16499 2.493 36.363)" r="23.541">
   <stop id="stop3450" offset="0"/>
   <stop id="stop3452" stop-opacity="0" offset="1"/>
  </radialGradient>
  <radialGradient id="radialGradient2317" xlink:href="#linearGradient8687" gradientUnits="userSpaceOnUse" cy="25.668" cx="18.685" r="5.05"/>
  <radialGradient id="radialGradient2319" xlink:href="#linearGradient9586" gradientUnits="userSpaceOnUse" cy="25.668" cx="18.685" r="5.05"/>
  <radialGradient id="radialGradient2321" xlink:href="#linearGradient9598" gradientUnits="userSpaceOnUse" cy="25.668" cx="18.685" r="5.05"/>
 </defs>
 <path id="path2551" fill="url(#radialGradient1366)" d="m45 43.548c0.002 2.145-9.401 3.884-21 3.884s-21.002-1.739-21-3.884c-0.002-2.146 9.401-3.885 21-3.885s21.002 1.739 21 3.885z"/>
 <g id="g2387">
  <path id="rect4902" d="m7.5133 18.454h32.998v11.778h-32.998c0.0003-3.926 0.0003-7.852 0.0003-11.778z" stroke="#2e3436" fill="#2e3436"/>
  <g id="g4960" opacity=".75" transform="matrix(1.1429 0 0 1.1429 -46.202 -12.175)">
   <path id="path4962" d="m23.735 25.668c0 2.789-2.261 5.05-5.05 5.05s-5.05-2.261-5.05-5.05 2.261-5.05 5.05-5.05 5.05 2.261 5.05 5.05z" transform="matrix(1.3861 0 0 1.3861 35.527 -3.9257)" fill="url(#radialGradient2317)"/>
   <path id="path4964" d="m23.735 25.668c0 2.789-2.261 5.05-5.05 5.05s-5.05-2.261-5.05-5.05 2.261-5.05 5.05-5.05 5.05 2.261 5.05 5.05z" transform="matrix(.99010 0 0 .99010 42.927 6.2981)" fill="url(#radialGradient2319)"/>
   <path id="path4966" d="m23.735 25.668c0 2.789-2.261 5.05-5.05 5.05s-5.05-2.261-5.05-5.05 2.261-5.05 5.05-5.05 5.05 2.261 5.05 5.05z" transform="matrix(.59406 0 0 .59406 50.327 16.464)" fill="url(#radialGradient2321)"/>
  </g>
  <g id="g4917" transform="matrix(1.1429 0 0 1.1429 -56.202 -12.175)">
   <path id="path4905" d="m23.735 25.668c0 2.789-2.261 5.05-5.05 5.05s-5.05-2.261-5.05-5.05 2.261-5.05 5.05-5.05 5.05 2.261 5.05 5.05z" transform="matrix(1.3861 0 0 1.3861 35.527 -3.9257)" fill="url(#radialGradient2317)"/>
   <path id="path4907" d="m23.735 25.668c0 2.789-2.261 5.05-5.05 5.05s-5.05-2.261-5.05-5.05 2.261-5.05 5.05-5.05 5.05 2.261 5.05 5.05z" transform="matrix(.99010 0 0 .99010 42.927 6.2981)" fill="url(#radialGradient2319)"/>
   <path id="path4909" d="m23.735 25.668c0 2.789-2.261 5.05-5.05 5.05s-5.05-2.261-5.05-5.05 2.261-5.05 5.05-5.05 5.05 2.261 5.05 5.05z" transform="matrix(.59406 0 0 .59406 50.327 16.464)" fill="url(#radialGradient2321)"/>
  </g>
  <g id="g1380" opacity=".5" transform="matrix(1.1429 0 0 1.1429 -36.202 -12.175)">
   <path id="path1382" d="m23.735 25.668c0 2.789-2.261 5.05-5.05 5.05s-5.05-2.261-5.05-5.05 2.261-5.05 5.05-5.05 5.05 2.261 5.05 5.05z" transform="matrix(1.3861 0 0 1.3861 35.527 -3.9257)" fill="url(#radialGradient2317)"/>
   <path id="path1384" d="m23.735 25.668c0 2.789-2.261 5.05-5.05 5.05s-5.05-2.261-5.05-5.05 2.261-5.05 5.05-5.05 5.05 2.261 5.05 5.05z" transform="matrix(.99010 0 0 .99010 42.927 6.2981)" fill="url(#radialGradient2319)"/>
   <path id="path1386" d="m23.735 25.668c0 2.789-2.261 5.05-5.05 5.05s-5.05-2.261-5.05-5.05 2.261-5.05 5.05-5.05 5.05 2.261 5.05 5.05z" transform="matrix(.59406 0 0 .59406 50.327 16.464)" fill="url(#radialGradient2321)"/>
  </g>
 </g>
 <path id="path2216" d="m23.969 3.5312c-10.117 0-18.544 7.3288-20.219 16.969h40.406c-1.676-9.639-10.071-16.969-20.187-16.969zm-20.188 24.063c1.6902 9.622 10.083 16.968 20.188 16.968s18.498-7.344 20.187-16.968h-40.375z" fill-rule="evenodd" stroke="#2e3436" stroke-width="1px" fill="url(#radialGradient1354)"/>
 <path id="path3113" d="m23.969 4.5312c-9.226 0-16.95 6.4498-18.969 15.063h37.938c-2.02-8.613-9.744-15.063-18.969-15.063zm-18.969 23.969c2.0192 8.613 9.743 15.031 18.969 15.031 9.225 0 16.949-6.418 18.969-15.031h-37.938z" stroke="url(#linearGradient1351)" stroke-width="1px" fill="none"/>
</svg>
